  <svg id="aix-logo" width="173" height="98" viewBox="0 0 173 98" fill="none" xmlns="http://www.w3.org/2000/svg">
            <title>This is an A.I. Experiment</title>
            <path
                d="M15.9916 54.5901L14.9255 51.3933H5.41256L4.34645 54.5901H0L8.69289 29.3442H11.6452L20.4201 54.5901H15.9916ZM10.251 36.2294L6.72468 47.7048H13.6954L10.251 36.2294ZM25.5866 49.0163C27.2268 49.0163 28.5389 50.3278 28.5389 51.9671C28.5389 53.5245 27.2268 54.836 25.5866 54.836C24.0285 54.836 22.7163 53.5245 22.7163 51.9671C22.6343 50.3278 23.9464 49.0163 25.5866 49.0163ZM32.5573 29.3442H36.8218V54.5901H32.5573V29.3442ZM43.4644 49.0163C45.1046 49.0163 46.4167 50.3278 46.4167 51.9671C46.4167 53.5245 45.1046 54.836 43.4644 54.836C41.9063 54.836 40.5941 53.5245 40.5941 51.9671C40.5941 50.3278 41.8243 49.0163 43.4644 49.0163ZM6.64268 67.213V74.3442H17.1397V78.0327H6.64268V84.9999H17.1397V88.7704H2.54226V63.4425H17.1397V67.213H6.64268ZM35.1816 88.7704H30.6711L27.3908 83.3605L24.1925 88.7704H19.682L25.1766 80.2458L19.764 71.8851H24.3565L27.3908 77.213L30.5071 71.8851H35.0996L29.687 80.2458L35.1816 88.7704ZM41.4962 74.1802C42.5623 72.4589 44.7766 71.4753 46.6628 71.4753C51.7473 71.4753 55.2736 75.5737 55.2736 80.3278C55.2736 85.0819 51.7473 89.1802 46.6628 89.1802C44.6946 89.1802 42.4803 88.1966 41.4962 86.4753V97.213H37.5598V71.8851H41.4962V74.1802ZM41.4962 80.3278C41.4962 83.1966 43.4644 85.6556 46.4988 85.6556C49.4511 85.6556 51.4193 83.1966 51.4193 80.3278C51.4193 77.4589 49.4511 74.9999 46.4988 74.9999C43.4644 74.9999 41.4962 77.4589 41.4962 80.3278ZM61.0142 81.5573C61.1782 84.0163 62.2443 85.9015 65.5247 85.9015C67.7389 85.9015 68.641 84.9179 69.133 83.6884H73.0695C72.5774 86.5573 69.7891 89.1802 65.5247 89.1802C59.8661 89.1802 57.0778 85.2458 57.0778 80.3278C57.0778 75.2458 60.1121 71.4753 65.3607 71.4753C69.7071 71.4753 73.1515 74.754 73.1515 79.0163C73.1515 79.5901 73.1515 80.4097 72.9874 81.4753H61.0142V81.5573ZM61.0142 78.6065H69.3791C69.3791 76.0655 67.6569 74.4261 65.2787 74.4261C62.9004 74.4261 61.0142 75.8196 61.0142 78.6065ZM86.9289 75.5737C86.3548 75.4097 86.0268 75.4097 85.3707 75.4097C82.0084 75.4097 80.2042 77.295 80.2042 81.4753V88.6884H76.2678V71.8851H80.2042V74.5901C80.9422 73.0327 83.1565 71.6392 85.3707 71.6392C85.9448 71.6392 86.5188 71.7212 86.9289 71.8851V75.5737ZM91.7674 62.8687C93.4075 62.8687 94.7197 64.1802 94.7197 65.8196C94.7197 67.3769 93.4075 68.6884 91.7674 68.6884C90.2092 68.6884 88.8971 67.3769 88.8971 65.8196C88.8971 64.1802 90.2092 62.8687 91.7674 62.8687ZM89.8812 71.8851H93.8176V88.6884H89.8812V71.8851ZM118.666 88.7704V79.3442C118.666 76.6392 117.764 74.9999 115.55 74.9999C113.582 74.9999 112.023 76.2294 112.023 80.2458V88.7704H108.087V79.2622C108.087 76.5573 107.185 74.9179 105.053 74.9179C103.085 74.9179 101.444 76.1474 101.444 80.1638V88.6884H97.5079V71.8851H101.444V74.2622C102.182 72.7048 103.905 71.4753 106.119 71.4753C109.153 71.4753 110.711 72.7868 111.449 74.5081C112.269 72.7868 114.238 71.4753 116.616 71.4753C121.7 71.4753 122.685 74.9179 122.685 78.1147V88.7704H118.666ZM128.999 81.5573C129.163 84.0163 130.229 85.9015 133.51 85.9015C135.724 85.9015 136.626 84.9179 137.118 83.6884H141.054C140.562 86.5573 137.774 89.1802 133.51 89.1802C127.851 89.1802 125.063 85.2458 125.063 80.3278C125.063 75.2458 128.097 71.4753 133.346 71.4753C137.692 71.4753 141.136 74.754 141.136 79.0163C141.136 79.5901 141.136 80.4097 140.972 81.4753H128.999V81.5573ZM128.999 78.6065H137.364C137.364 76.0655 135.642 74.4261 133.264 74.4261C130.885 74.4261 128.999 75.8196 128.999 78.6065ZM144.253 71.8851H148.189V74.2622C149.255 72.4589 151.223 71.4753 153.684 71.4753C156.062 71.4753 157.784 72.3769 158.768 73.7704C159.588 74.9999 159.834 76.4753 159.834 78.7704V88.7704H155.816V79.9999C155.816 77.1311 154.996 74.9179 152.208 74.9179C149.501 74.9179 148.189 77.1311 148.189 79.9999V88.6884H144.253V71.8851ZM172.956 88.7704C172.382 88.8524 171.151 89.0163 170.003 89.0163C168.117 89.0163 164.591 88.7704 164.591 83.1147V75.3278H161.721V72.0491H164.591V66.9671H168.527V72.0491H172.382V75.3278H168.527V82.213C168.527 85.1638 169.429 85.4917 170.987 85.4917C171.562 85.4917 172.546 85.4097 172.956 85.3278V88.7704ZM3.19832 2.62285H0.0820134V0.819563H8.44686V2.62285H5.24853V13.4425H3.19832V2.62285ZM9.841 0.819563H11.8092V6.2294C12.3013 5.32776 13.2854 4.83596 14.5155 4.83596C15.7456 4.83596 16.5657 5.2458 17.0577 5.9835C17.4678 6.63924 17.6318 7.29498 17.6318 8.44252V13.4425H15.6636V9.09826C15.6636 7.62285 15.2536 6.55727 13.8594 6.55727C12.4653 6.55727 11.8092 7.62285 11.8092 9.09826V13.4425H9.841V0.819563ZM20.9941 0.491699C21.8142 0.491699 22.4703 1.14743 22.4703 1.96711C22.4703 2.78678 21.8142 3.44252 20.9941 3.44252C20.1741 3.44252 19.518 2.78678 19.518 1.96711C19.518 1.14743 20.1741 0.491699 20.9941 0.491699ZM20.01 4.9999H21.9782V13.4425H20.01V4.9999ZM30.5891 11.0655C30.5891 12.7868 29.113 13.6065 27.2268 13.6065C25.4226 13.6065 23.7824 12.5409 23.7824 10.5737H25.6686C25.6686 11.6392 26.3247 12.0491 27.3088 12.0491C28.0469 12.0491 28.7029 11.8032 28.7029 11.0655C28.7029 10.2458 27.8828 10.2458 26.0787 9.50809C24.9305 9.01629 24.1105 8.60645 24.1105 7.13104C24.1105 5.57367 25.5866 4.67203 27.2268 4.67203C29.031 4.67203 30.4251 5.90153 30.4251 7.54088H28.5389C28.5389 6.72121 28.1289 6.2294 27.1448 6.2294C26.4887 6.2294 25.9146 6.55727 25.9146 7.13104C25.9146 7.86875 26.6527 7.95071 28.2109 8.52448C29.523 9.09825 30.5891 9.50809 30.5891 11.0655ZM37.9699 0.491699C38.79 0.491699 39.446 1.14743 39.446 1.96711C39.446 2.78678 38.79 3.44252 37.9699 3.44252C37.1498 3.44252 36.4937 2.78678 36.4937 1.96711C36.5757 1.14743 37.2318 0.491699 37.9699 0.491699ZM36.9858 4.9999H38.954V13.4425H36.9858V4.9999ZM47.6469 11.0655C47.6469 12.7868 46.1707 13.6065 44.2845 13.6065C42.4803 13.6065 40.8402 12.5409 40.8402 10.5737H42.7264C42.7264 11.6392 43.3824 12.0491 44.3665 12.0491C45.1046 12.0491 45.7607 11.8032 45.7607 11.0655C45.7607 10.2458 44.9406 10.2458 43.1364 9.50809C41.9883 9.01629 41.1682 8.60645 41.1682 7.13104C41.1682 5.57367 42.6444 4.67203 44.2845 4.67203C46.0887 4.67203 47.4828 5.90153 47.4828 7.54088H45.5967C45.5967 6.72121 45.1866 6.2294 44.2025 6.2294C43.5464 6.2294 42.9724 6.55727 42.9724 7.13104C42.9724 7.86875 43.7105 7.95071 45.2686 8.52448C46.4988 9.09825 47.6469 9.50809 47.6469 11.0655ZM62.3264 4.9999V13.4425H60.3582V12.295C59.8661 13.1146 58.718 13.6884 57.7339 13.6884C55.1916 13.6884 53.3875 11.6392 53.3875 9.26219C53.3875 6.88514 55.1096 4.83596 57.7339 4.83596C58.718 4.83596 59.7841 5.32776 60.3582 6.2294V4.9999H62.3264ZM60.3582 9.18022C60.3582 7.70481 59.3741 6.4753 57.8979 6.4753C56.4218 6.4753 55.4377 7.70481 55.4377 9.18022C55.4377 10.6556 56.4218 11.8851 57.8979 11.8851C59.3741 11.8851 60.3582 10.6556 60.3582 9.18022ZM64.8686 4.9999H66.8368V6.14743C67.3289 5.24579 68.313 4.75399 69.5431 4.75399C70.7732 4.75399 71.5933 5.16383 72.0854 5.90153C72.4954 6.55727 72.6594 7.21301 72.6594 8.36055V13.3605H70.6912V9.01628C70.6912 7.54087 70.2812 6.4753 68.887 6.4753C67.4929 6.4753 66.8368 7.54087 66.8368 9.01628V13.3605H64.8686V4.9999Z"
                fill="#9AA0A6"></path>
        </svg>