<svg width="36" height="25" viewBox="0 0 36 25" fill="none" xmlns="http://www.w3.org/2000/svg">
        <title>Arduino</title>
        <path d="M27.1282 16.8641C31.873 16.8444 35.727 13.093 35.727 8.48381C35.727 3.86479 31.8533 0.103516 27.0888 0.103516C24.4802 0.103516 22.2849 0.966193 20.3801 2.74577C19.4646 3.59859 18.6919 4.58944 17.9831 5.62465C17.2793 4.58944 16.5016 3.59859 15.5861 2.74577C13.6813 0.966193 11.4861 0.103516 8.87739 0.103516C4.11288 0.103516 0.239258 3.86479 0.239258 8.48381C0.239258 13.093 4.09319 16.8444 8.83801 16.8641C11.3285 16.9874 13.4302 16.2282 15.2612 14.5472C16.3145 13.581 17.1857 12.393 17.9831 11.1655C18.7805 12.3979 19.6517 13.581 20.705 14.5472C22.4129 16.1148 24.3473 16.8789 26.6163 16.8789C26.7886 16.8789 26.9559 16.874 27.1282 16.8641ZM13.2678 12.3634C12.0078 13.5219 10.6739 14 8.95614 13.9064H8.87739C5.74207 13.9064 3.19246 11.4761 3.19246 8.48381C3.19246 5.49155 5.74207 3.06127 8.87739 3.06127C10.7281 3.06127 12.2194 3.64789 13.5779 4.90986C14.5869 5.85141 15.4237 7.05916 16.2506 8.37043C15.3055 9.90846 14.3851 11.338 13.2678 12.3634ZM22.7033 12.3634C21.586 11.338 20.6656 9.90846 19.7206 8.37043C20.5475 7.05916 21.3793 5.85141 22.3932 4.90986C23.7468 3.64789 25.2382 3.06127 27.0888 3.06127C30.2241 3.06127 32.7738 5.49155 32.7738 8.48381C32.7738 11.4761 30.2241 13.9064 27.0888 13.9064H27.0101C25.2923 14 23.9634 13.5219 22.7033 12.3634Z" fill="#00979C"></path>
        <path d="M27.484 9.07027H29.0837V7.409H27.484V5.80688H25.8155V7.409H24.2158V9.07027H25.8155V10.6872H27.484V9.07027Z" fill="#00979C"></path>
        <path d="M34.4828 1.04045L34.6502 1.57285H34.8027L34.9603 1.05524V1.57285H35.1325V0.739746H34.9012L34.724 1.30665L34.5468 0.739746H34.3105V1.57285H34.4828V1.04045Z" fill="#00979C"></path>
        <path d="M33.837 1.57285H34.0191V0.902422H34.2701V0.739746H33.5811V0.902422H33.837V1.57285Z" fill="#00979C"></path>
        <path d="M2.39392 18.3872L0.631836 24.145H1.84265L2.17243 23.0309H4.11662L4.43655 24.145H5.77041L4.01326 18.3872H2.39392ZM3.84099 22.045H2.47267L3.16175 19.6935L3.84099 22.045Z" fill="#00979C"></path>
        <path d="M9.27512 21.6015C9.20621 21.5276 9.13238 21.4684 9.05363 21.424C9.16684 21.3945 9.27512 21.355 9.37848 21.3106C9.54091 21.2367 9.68365 21.1381 9.80178 21.0149C9.91991 20.8916 10.0134 20.7487 10.0774 20.5811C10.1414 20.4135 10.1759 20.2212 10.1759 20.0092C10.1759 19.7135 10.1217 19.4571 10.0183 19.255C9.91498 19.048 9.7624 18.8804 9.57537 18.7473C9.38341 18.6191 9.15207 18.5254 8.88628 18.4712C8.6205 18.417 8.32517 18.3923 8.00032 18.3923H6.24316V24.1501H7.4589V21.8184H7.61148C7.78868 21.8184 7.94126 21.8578 8.06923 21.9416C8.1972 22.0205 8.29564 22.1437 8.36947 22.3064L9.20621 24.155H10.6287L9.65412 22.1783C9.52122 21.9268 9.39817 21.7346 9.27512 21.6015ZM8.90105 20.1078C8.90105 20.2311 8.87644 20.3395 8.82722 20.4332C8.778 20.5268 8.70909 20.6057 8.6205 20.6698C8.52698 20.7339 8.41869 20.7832 8.2858 20.8177C8.1529 20.8522 8.00032 20.867 7.8379 20.867H7.44906V19.393H7.87235C8.22181 19.393 8.48268 19.4522 8.65495 19.5656C8.8223 19.674 8.90105 19.8515 8.90105 20.1078Z" fill="#00979C"></path>
        <path d="M14.9016 19.0677C14.6752 18.836 14.3848 18.6635 14.0402 18.555C13.7006 18.4466 13.3019 18.3923 12.854 18.3923H11.0723V24.1501H12.6129C13.1297 24.1501 13.5825 24.0811 13.9566 23.943C14.3306 23.805 14.6456 23.6029 14.8868 23.3466C15.128 23.0902 15.3101 22.7747 15.4233 22.4099C15.5365 22.0501 15.5907 21.6409 15.5907 21.2022C15.5907 20.7191 15.5316 20.3001 15.4184 19.9501C15.3052 19.5902 15.1329 19.2944 14.9016 19.0677ZM12.288 19.398H12.7851C13.0755 19.398 13.3216 19.4423 13.5136 19.5212C13.7055 19.605 13.8581 19.7233 13.9713 19.8811C14.0845 20.0388 14.1682 20.236 14.2174 20.4628C14.2667 20.6945 14.2913 20.9656 14.2913 21.2663C14.2913 21.917 14.1534 22.3952 13.8877 22.6909C13.6219 22.9867 13.2232 23.1395 12.7064 23.1395H12.2831V19.398H12.288Z" fill="#00979C"></path>
        <path d="M19.2526 22.0795C19.2526 22.2964 19.2329 22.4788 19.1935 22.6316C19.1542 22.7795 19.0951 22.8978 19.0163 22.9914C18.9425 23.0802 18.8441 23.1492 18.7309 23.1886C18.6127 23.233 18.4651 23.2527 18.2928 23.2527C18.1107 23.2527 17.9532 23.2281 17.8351 23.1788C17.7169 23.1295 17.6185 23.0605 17.5397 22.9668C17.461 22.8731 17.4068 22.7548 17.3724 22.6168C17.3379 22.4738 17.3232 22.3112 17.3232 22.1238V18.3872H16.1074V22.1879C16.1074 22.4985 16.1468 22.7844 16.2206 23.0358C16.2994 23.2921 16.4224 23.509 16.5947 23.6914C16.767 23.8689 16.9934 24.0069 17.269 24.1055C17.5397 24.1992 17.8695 24.2485 18.2485 24.2485C18.5881 24.2485 18.8933 24.1992 19.1689 24.1055C19.4446 24.0119 19.6808 23.8689 19.8728 23.6816C20.0647 23.4943 20.2124 23.2576 20.3158 22.9816C20.4191 22.7055 20.4683 22.3802 20.4683 22.0154V18.3921H19.2526V22.0795Z" fill="#00979C"></path>
        <path d="M21.4141 19.3731H22.6938V23.1492H21.4141V24.145H25.2089V23.1492H23.9292V19.3731H25.2089V18.3872H21.4141V19.3731Z" fill="#00979C"></path>
        <path d="M29.4065 22.2027L29.2391 21.8083L27.6296 18.3872H26.1875V24.145H27.3048V20.2752L27.5115 20.7435L29.0866 24.145H30.5238V18.3872H29.4065V22.2027Z" fill="#00979C"></path>
        <path d="M35.1761 19.0529C34.7824 18.55 34.1819 18.2937 33.3993 18.2937C33.0646 18.2937 32.7447 18.3529 32.4493 18.4712C32.154 18.5895 31.8882 18.7719 31.6717 19.0184C31.4502 19.2599 31.2779 19.5754 31.1499 19.955C31.0269 20.3296 30.9629 20.7831 30.9629 21.2958C30.9629 22.2472 31.1598 22.9817 31.5535 23.4845C31.9473 23.9923 32.5478 24.2486 33.3304 24.2486C33.6651 24.2486 33.985 24.1895 34.2803 24.0712C34.5756 23.9529 34.8414 23.7705 35.058 23.524C35.2795 23.2824 35.4518 22.9669 35.5797 22.5874C35.7028 22.2127 35.7668 21.7592 35.7668 21.2465C35.7668 20.2902 35.5699 19.5557 35.1761 19.0529ZM33.8767 23.0507C33.734 23.1296 33.5617 23.1691 33.3648 23.1691C32.9661 23.1691 32.6856 23.0162 32.5084 22.7057C32.3263 22.3902 32.2377 21.8972 32.2377 21.2416C32.2377 20.936 32.2623 20.6599 32.3017 20.4282C32.346 20.1965 32.4149 19.9993 32.5084 19.8416C32.597 19.6888 32.7151 19.5705 32.8529 19.4916C32.9908 19.4127 33.163 19.3733 33.3648 19.3733C33.7684 19.3733 34.049 19.5261 34.2213 19.8367C34.3985 20.1522 34.492 20.6451 34.492 21.3007C34.492 21.6064 34.4674 21.8824 34.428 22.1141C34.3837 22.3458 34.3148 22.543 34.2262 22.7007C34.1327 22.8536 34.0145 22.9719 33.8767 23.0507Z" fill="#00979C"></path>
        <path d="M11.7411 7.3894H6.47949V9.1049H11.7411V7.3894Z" fill="#00979C"></path>
    </svg>