<svg width="56" height="17" viewBox="0 0 56 17" fill="none" xmlns="http://www.w3.org/2000/svg">
        <title>Coral</title>
        <path d="M20.3017 5.62305C17.1681 5.62305 14.6523 8.10766 14.6523 11.2025C14.6523 14.2974 17.1681 16.782 20.3017 16.782C23.4354 16.782 25.9511 14.2974 25.9511 11.2025C25.9511 8.10766 23.3912 5.62305 20.3017 5.62305ZM20.3017 14.1666C18.6246 14.1666 17.3005 12.8589 17.3005 11.2025C17.3005 9.54612 18.6246 8.23843 20.3017 8.23843C21.9789 8.23843 23.303 9.54612 23.303 11.2025C23.303 12.8589 21.9347 14.1666 20.3017 14.1666Z" fill="#FF5E4D"></path>
        <path d="M33.8515 9.63331C34.9728 9.63331 35.8818 8.73558 35.8818 7.62818C35.8818 6.52077 34.9728 5.62305 33.8515 5.62305C32.7303 5.62305 31.8213 6.52077 31.8213 7.62818C31.8213 8.73558 32.7303 9.63331 33.8515 9.63331Z" fill="#FF5E4D"></path>
        <path d="M30.7624 5.88477H27.8936V16.6514H30.7624V5.88477Z" fill="#FF5E4D"></path>
        <path d="M52.7419 0.915283H49.873V16.6512H52.7419V0.915283Z" fill="#FF5E4D"></path>
        <path d="M42.1494 5.62305C39.0157 5.62305 36.5 8.10766 36.5 11.2025C36.5 14.2974 38.4861 16.782 41.6198 16.782C42.8556 16.782 44.4003 16.1282 45.0623 14.9948C45.0623 15.2128 45.0623 16.6513 45.0623 16.6513H47.7546C47.7546 16.6513 47.7546 11.2025 47.7546 11.1589C47.7546 8.10766 45.283 5.62305 42.1494 5.62305ZM42.1052 14.1666C40.4281 14.1666 39.104 12.8589 39.104 11.2025C39.104 9.54612 40.4281 8.23843 42.1052 8.23843C43.7824 8.23843 45.1065 9.54612 45.1065 11.2025C45.1065 12.8589 43.7383 14.1666 42.1052 14.1666Z" fill="#FF5E4D"></path>
        <path d="M8.34131 13.9052C5.47248 13.9052 3.17742 11.5949 3.17742 8.80516C3.17742 6.01542 5.47248 3.70516 8.34131 3.70516C9.84192 3.70516 11.2543 4.35901 12.2694 5.49234L14.4762 3.70516C12.8873 1.87439 10.6805 0.871826 8.34131 0.871826C3.88359 0.871826 0.308594 4.44619 0.308594 8.80516C0.308594 13.1641 3.92773 16.7385 8.34131 16.7385C10.2391 16.7385 12.0928 16.0846 13.5052 14.8641L11.6515 12.7282C10.7246 13.5129 9.53297 13.9052 8.34131 13.9052Z" fill="#FF5E4D"></path>
    </svg>