<svg id="google-logo" width="156" height="52" viewBox="0 0 156 52" fill="none" xmlns="http://www.w3.org/2000/svg">
        <title>Google</title>
        <path d="M20.3394 39.768C16.7874 39.768 13.4754 38.888 10.4034 37.128C7.33137 35.336 4.88337 32.936 3.05937 29.928C1.26737 26.92 0.371369 23.64 0.371369 20.088C0.371369 16.536 1.26737 13.256 3.05937 10.248C4.88337 7.24 7.33137 4.856 10.4034 3.096C13.4754 1.304 16.7874 0.407999 20.3394 0.407999C25.5554 0.407999 30.0514 2.216 33.8274 5.832L30.0354 9.624C27.3154 7.064 24.0834 5.784 20.3394 5.784C17.7474 5.784 15.3634 6.424 13.1874 7.704C11.0434 8.984 9.34737 10.728 8.09937 12.936C6.85137 15.112 6.22737 17.496 6.22737 20.088C6.22737 22.68 6.85137 25.08 8.09937 27.288C9.34737 29.464 11.0434 31.192 13.1874 32.472C15.3634 33.752 17.7474 34.392 20.3394 34.392C22.6434 34.392 24.5794 34.024 26.1474 33.288C27.7474 32.552 29.1234 31.608 30.2754 30.456C31.8434 28.888 32.8194 26.632 33.2034 23.688H20.3394V18.312H38.4354C38.6274 19.272 38.7234 20.392 38.7234 21.672C38.7234 23.944 38.3554 26.2 37.6194 28.44C36.8834 30.68 35.6994 32.616 34.0674 34.248C30.5474 37.928 25.9714 39.768 20.3394 39.768ZM124.259 1.752H129.827V39H124.259V1.752ZM53.3634 39.768C51.0594 39.768 48.9314 39.224 46.9794 38.136C45.0274 37.016 43.4754 35.496 42.3234 33.576C41.2034 31.624 40.6434 29.464 40.6434 27.096C40.6434 24.696 41.2034 22.536 42.3234 20.616C43.4754 18.664 45.0274 17.144 46.9794 16.056C48.9314 14.968 51.0594 14.424 53.3634 14.424C55.6674 14.424 57.7954 14.968 59.7474 16.056C61.6994 17.144 63.2354 18.664 64.3554 20.616C65.5074 22.536 66.0834 24.696 66.0834 27.096C66.0834 29.464 65.5074 31.624 64.3554 33.576C63.2354 35.496 61.6994 37.016 59.7474 38.136C57.7954 39.224 55.6674 39.768 53.3634 39.768ZM81.1074 39.768C78.8034 39.768 76.6754 39.224 74.7234 38.136C72.7714 37.016 71.2194 35.496 70.0674 33.576C68.9474 31.624 68.3874 29.464 68.3874 27.096C68.3874 24.696 68.9474 22.536 70.0674 20.616C71.2194 18.664 72.7714 17.144 74.7234 16.056C76.6754 14.968 78.8034 14.424 81.1074 14.424C83.4114 14.424 85.5394 14.968 87.4914 16.056C89.4434 17.144 90.9794 18.664 92.0994 20.616C93.2514 22.536 93.8274 24.696 93.8274 27.096C93.8274 29.464 93.2514 31.624 92.0994 33.576C90.9794 35.496 89.4434 37.016 87.4914 38.136C85.5394 39.224 83.4114 39.768 81.1074 39.768ZM108.371 51.144C105.555 51.144 103.187 50.392 101.267 48.888C99.3474 47.384 97.9714 45.64 97.1394 43.656L101.987 41.64C102.499 42.856 103.299 43.912 104.387 44.808C105.475 45.704 106.803 46.152 108.371 46.152C110.483 46.152 112.131 45.512 113.315 44.232C114.531 42.952 115.139 41.112 115.139 38.712V36.888H114.947C114.275 37.72 113.347 38.408 112.163 38.952C111.011 39.496 109.715 39.768 108.275 39.768C106.163 39.768 104.179 39.208 102.323 38.088C100.467 36.968 98.9634 35.448 97.8114 33.528C96.6914 31.576 96.1314 29.448 96.1314 27.144C96.1314 24.808 96.6914 22.68 97.8114 20.76C98.9634 18.808 100.467 17.272 102.323 16.152C104.211 15 106.195 14.424 108.275 14.424C109.715 14.424 111.011 14.696 112.163 15.24C113.347 15.784 114.275 16.456 114.947 17.256H115.139V15.192H120.419V37.944C120.419 42.36 119.283 45.656 117.011 47.832C114.771 50.04 111.891 51.144 108.371 51.144ZM145.091 39.768C142.723 39.768 140.579 39.208 138.659 38.088C136.739 36.968 135.235 35.448 134.147 33.528C133.059 31.576 132.515 29.432 132.515 27.096C132.515 24.632 133.043 22.44 134.099 20.52C135.187 18.6 136.643 17.112 138.467 16.056C140.291 14.968 142.291 14.424 144.467 14.424C147.379 14.424 149.731 15.272 151.523 16.968C153.315 18.664 154.579 20.504 155.315 22.488L155.891 23.928L138.947 30.936C140.259 33.496 142.307 34.776 145.091 34.776C147.651 34.776 149.731 33.608 151.331 31.272L155.651 34.152C154.691 35.592 153.331 36.888 151.571 38.04C149.811 39.192 147.651 39.768 145.091 39.768ZM149.363 22.008C149.043 21.208 148.451 20.568 147.587 20.088C146.723 19.576 145.747 19.32 144.659 19.32C143.667 19.32 142.643 19.608 141.587 20.184C140.531 20.76 139.667 21.608 138.995 22.728C138.323 23.848 138.003 25.176 138.035 26.712L149.363 22.008ZM53.3634 34.776C54.6434 34.776 55.8274 34.456 56.9154 33.816C58.0034 33.144 58.8674 32.232 59.5074 31.08C60.1794 29.896 60.5154 28.568 60.5154 27.096C60.5154 25.624 60.1794 24.312 59.5074 23.16C58.8674 21.976 58.0034 21.064 56.9154 20.424C55.8274 19.752 54.6434 19.416 53.3634 19.416C52.0834 19.416 50.8994 19.752 49.8114 20.424C48.7234 21.064 47.8434 21.976 47.1714 23.16C46.5314 24.312 46.2114 25.624 46.2114 27.096C46.2114 28.568 46.5314 29.896 47.1714 31.08C47.8434 32.232 48.7234 33.144 49.8114 33.816C50.8994 34.456 52.0834 34.776 53.3634 34.776ZM81.1074 34.776C82.3874 34.776 83.5714 34.456 84.6594 33.816C85.7474 33.144 86.6114 32.232 87.2514 31.08C87.9234 29.896 88.2594 28.568 88.2594 27.096C88.2594 25.624 87.9234 24.312 87.2514 23.16C86.6114 21.976 85.7474 21.064 84.6594 20.424C83.5714 19.752 82.3874 19.416 81.1074 19.416C79.8274 19.416 78.6434 19.752 77.5554 20.424C76.4674 21.064 75.5874 21.976 74.9154 23.16C74.2754 24.312 73.9554 25.624 73.9554 27.096C73.9554 28.568 74.2754 29.896 74.9154 31.08C75.5874 32.232 76.4674 33.144 77.5554 33.816C78.6434 34.456 79.8274 34.776 81.1074 34.776ZM108.755 34.776C110.003 34.776 111.139 34.456 112.163 33.816C113.219 33.144 114.035 32.232 114.611 31.08C115.219 29.896 115.523 28.584 115.523 27.144C115.523 25.672 115.219 24.36 114.611 23.208C114.035 22.024 113.219 21.096 112.163 20.424C111.139 19.752 110.003 19.416 108.755 19.416C107.475 19.416 106.291 19.752 105.203 20.424C104.147 21.096 103.299 22.024 102.659 23.208C102.019 24.392 101.699 25.704 101.699 27.144C101.699 28.584 102.019 29.896 102.659 31.08C103.299 32.232 104.147 33.144 105.203 33.816C106.291 34.456 107.475 34.776 108.755 34.776Z" fill="#9AA0A6"></path>
    </svg>