<svg width="40" height="25" viewBox="0 0 40 25" fill="none" xmlns="http://www.w3.org/2000/svg">
        <title>node.js</title>
        <path d="M19.7646 25.0001C19.6289 25.0001 19.5023 24.9631 19.3848 24.8985L18.1823 24.1695C18.0014 24.068 18.0919 24.0311 18.1461 24.0126C18.3902 23.9296 18.4354 23.9111 18.6886 23.7634C18.7157 23.745 18.7519 23.7542 18.779 23.7727L19.7013 24.3356C19.7374 24.3541 19.7826 24.3541 19.8098 24.3356L23.4174 22.2038C23.4535 22.1854 23.4716 22.1484 23.4716 22.1023V17.848C23.4716 17.8018 23.4535 17.7649 23.4174 17.7465L19.8098 15.6239C19.7736 15.6054 19.7284 15.6054 19.7013 15.6239L16.0937 17.7465C16.0575 17.7649 16.0394 17.8111 16.0394 17.848V22.1023C16.0394 22.1392 16.0575 22.1854 16.0937 22.2038L17.0792 22.7852C17.6127 23.0621 17.9472 22.7391 17.9472 22.4161V18.2171C17.9472 18.1617 17.9924 18.1064 18.0557 18.1064H18.5168C18.5711 18.1064 18.6253 18.1525 18.6253 18.2171V22.4161C18.6253 23.1451 18.2365 23.5696 17.5584 23.5696C17.3504 23.5696 17.1877 23.5696 16.7266 23.3389L15.7772 22.7852C15.5421 22.6468 15.3975 22.3884 15.3975 22.1115V17.8572C15.3975 17.5803 15.5421 17.3219 15.7772 17.1835L19.3848 15.0517C19.6108 14.9225 19.9183 14.9225 20.1443 15.0517L23.7519 17.1835C23.987 17.3219 24.1316 17.5803 24.1316 17.8572V22.1115C24.1316 22.3884 23.987 22.6468 23.7519 22.7852L20.1443 24.917C20.0358 24.9631 19.9002 25.0001 19.7646 25.0001Z" fill="#679E63"></path>
        <path d="M20.8853 22.0748C19.303 22.0748 18.9775 21.3365 18.9775 20.7089C18.9775 20.6536 19.0227 20.5982 19.086 20.5982H19.5562C19.6105 20.5982 19.6557 20.6351 19.6557 20.6905C19.728 21.1796 19.9359 21.4195 20.8944 21.4195C21.6538 21.4195 21.9793 21.2442 21.9793 20.8289C21.9793 20.589 21.8889 20.4136 20.7045 20.2937C19.7189 20.1921 19.1041 19.9707 19.1041 19.1678C19.1041 18.4203 19.7189 17.9773 20.7497 17.9773C21.907 17.9773 22.4766 18.3833 22.549 19.2693C22.549 19.297 22.5399 19.3247 22.5218 19.3523C22.5038 19.3708 22.4766 19.3893 22.4495 19.3893H21.9703C21.9251 19.3893 21.8799 19.3523 21.8708 19.3062C21.7623 18.7986 21.4821 18.6325 20.7406 18.6325C19.9088 18.6325 19.8094 18.9278 19.8094 19.1493C19.8094 19.4169 19.9269 19.5 21.0481 19.6477C22.1602 19.7953 22.6846 20.0076 22.6846 20.8012C22.6846 21.6133 22.0246 22.0748 20.8853 22.0748Z" fill="#679E63"></path>
        <path d="M26.0936 17.6081C26.0936 17.9957 25.7771 18.3186 25.3974 18.3186C25.0176 18.3186 24.7012 18.0049 24.7012 17.6081C24.7012 17.202 25.0267 16.8975 25.3974 16.8975C25.7681 16.8975 26.0936 17.2112 26.0936 17.6081ZM24.8097 17.6081C24.8097 17.9403 25.0719 18.2079 25.3883 18.2079C25.7138 18.2079 25.976 17.9311 25.976 17.6081C25.976 17.2758 25.7138 17.0174 25.3883 17.0174C25.0809 17.0174 24.8097 17.2758 24.8097 17.6081ZM25.1352 17.2112H25.4064C25.4968 17.2112 25.6777 17.2112 25.6777 17.4235C25.6777 17.5711 25.5872 17.5988 25.533 17.6173C25.6415 17.6265 25.6505 17.7003 25.6596 17.8019C25.6686 17.8665 25.6777 17.9772 25.6957 18.0141H25.533C25.533 17.9772 25.5059 17.7742 25.5059 17.7649C25.4968 17.7188 25.4787 17.7003 25.4245 17.7003H25.2889V18.0233H25.1352V17.2112ZM25.2798 17.5619H25.3974C25.4968 17.5619 25.5149 17.4881 25.5149 17.4512C25.5149 17.3404 25.4426 17.3404 25.3974 17.3404H25.2708V17.5619H25.2798Z" fill="#679E63"></path>
        <path fill-rule="evenodd" clip-rule="evenodd" d="M8.58047 8.36103C8.58047 8.19492 8.49005 8.03803 8.34539 7.95498L4.5208 5.69399C4.4575 5.65708 4.38517 5.63862 4.31284 5.62939C4.3038 5.62939 4.27667 5.62939 4.27667 5.62939C4.20434 5.62939 4.13201 5.65708 4.06872 5.69399L0.235081 7.94575C0.0904159 8.0288 0 8.18569 0 8.36103L0.00904159 14.4149C0.00904159 14.498 0.0542495 14.581 0.126582 14.6179C0.198915 14.6641 0.289331 14.6641 0.352622 14.6179L2.6311 13.289C2.77577 13.206 2.86618 13.0491 2.86618 12.883V10.0498C2.86618 9.88373 2.9566 9.72685 3.10127 9.64379L4.06872 9.07162C4.14105 9.02548 4.22242 9.00702 4.3038 9.00702C4.38517 9.00702 4.46655 9.02548 4.52984 9.07162L5.49729 9.64379C5.64195 9.72685 5.73237 9.88373 5.73237 10.0498V12.883C5.73237 13.0491 5.82278 13.206 5.96745 13.289L8.22785 14.6179C8.30018 14.6641 8.3906 14.6641 8.46293 14.6179C8.53526 14.581 8.58047 14.498 8.58047 14.4149V8.36103Z" fill="#333333"></path>
        <path fill-rule="evenodd" clip-rule="evenodd" d="M27.0076 0.0276855C26.9353 -0.0092285 26.8449 -0.0092285 26.7816 0.0276855C26.7092 0.073828 26.664 0.147656 26.664 0.230712V6.22924C26.664 6.28461 26.6369 6.33998 26.5826 6.37689C26.5284 6.40458 26.4741 6.40458 26.4199 6.37689L25.4615 5.81395C25.3168 5.7309 25.145 5.7309 25.0004 5.81395L21.1667 8.07494C21.0221 8.15799 20.9316 8.31488 20.9316 8.48099V12.9937C20.9316 13.1598 21.0221 13.3167 21.1667 13.3998L25.0004 15.6608C25.145 15.7438 25.3168 15.7438 25.4615 15.6608L29.2951 13.3998C29.4398 13.3167 29.5302 13.1598 29.5302 12.9937V1.74419C29.5302 1.56884 29.4398 1.41196 29.2951 1.3289L27.0076 0.0276855ZM26.655 11.5079C26.655 11.5541 26.6369 11.591 26.6007 11.6095L25.2897 12.3846C25.2535 12.4031 25.2083 12.4031 25.1722 12.3846L23.8611 11.6095C23.825 11.591 23.8069 11.5449 23.8069 11.5079V9.95755C23.8069 9.91141 23.825 9.87449 23.8611 9.85604L25.1722 9.08084C25.2083 9.06238 25.2535 9.06238 25.2897 9.08084L26.6007 9.85604C26.6369 9.87449 26.655 9.92064 26.655 9.95755V11.5079Z" fill="#333333"></path>
        <path fill-rule="evenodd" clip-rule="evenodd" d="M39.765 9.92064C39.9097 9.83758 39.9911 9.68069 39.9911 9.51458V8.41639C39.9911 8.25028 39.9007 8.09339 39.765 8.01034L35.9585 5.75858C35.8139 5.67552 35.6421 5.67552 35.4974 5.75858L31.6638 8.01956C31.5191 8.10262 31.4287 8.25951 31.4287 8.42562V12.9384C31.4287 13.1045 31.5191 13.2614 31.6638 13.3444L35.4703 15.5593C35.615 15.6423 35.7867 15.6423 35.9224 15.5593L38.228 14.2488C38.3003 14.2119 38.3455 14.1288 38.3455 14.0458C38.3455 13.9627 38.3003 13.8797 38.228 13.8428L34.3763 11.5818C34.3039 11.5356 34.2587 11.4618 34.2587 11.3787V9.96678C34.2587 9.88372 34.3039 9.80067 34.3763 9.76375L35.5788 9.06239C35.6511 9.01624 35.7415 9.01624 35.8139 9.06239L37.0164 9.76375C37.0887 9.80989 37.1339 9.88372 37.1339 9.96678V11.0742C37.1339 11.1573 37.1792 11.2403 37.2515 11.2772C37.3238 11.3234 37.4142 11.3234 37.4866 11.2772L39.765 9.92064Z" fill="#333333"></path>
        <path fill-rule="evenodd" clip-rule="evenodd" d="M35.6692 9.70842C35.6963 9.68997 35.7325 9.68997 35.7596 9.70842L36.492 10.1422C36.5191 10.1606 36.5372 10.1883 36.5372 10.2252V11.0927C36.5372 11.1296 36.5191 11.1573 36.492 11.1758L35.7596 11.6095C35.7325 11.628 35.6963 11.628 35.6692 11.6095L34.9368 11.1758C34.9097 11.1573 34.8916 11.1296 34.8916 11.0927V10.2252C34.8916 10.1883 34.9097 10.1606 34.9368 10.1422L35.6692 9.70842Z" fill="#679E63"></path>
        <path d="M14.9907 5.77689C14.8461 5.69384 14.6743 5.69384 14.5296 5.77689L10.7231 8.01942C10.5784 8.10247 10.4971 8.25936 10.4971 8.42547V12.9198C10.4971 13.0859 10.5875 13.2428 10.7231 13.3258L14.5296 15.5683C14.6743 15.6514 14.8461 15.6514 14.9907 15.5683L18.7973 13.3258C18.9419 13.2428 19.0233 13.0859 19.0233 12.9198V8.42547C19.0233 8.25936 18.9329 8.10247 18.7973 8.01942L14.9907 5.77689Z" fill="url(#paint0_linear)"></path>
        <path d="M18.806 8.01865L14.9814 5.77612C14.9452 5.75767 14.9 5.73921 14.8638 5.72998L10.5781 13.2143C10.6143 13.2604 10.6595 13.2973 10.7047 13.325L14.5293 15.5676C14.6378 15.6322 14.7644 15.6506 14.8819 15.6137L18.9054 8.10171C18.8783 8.06479 18.8421 8.03711 18.806 8.01865Z" fill="url(#paint1_linear)"></path>
        <path d="M14.4029 4.95557L14.3486 4.98325H14.421L14.4029 4.95557Z" fill="url(#paint2_linear)"></path>
        <path d="M18.8058 13.3258C18.9143 13.2612 18.9957 13.1505 19.0319 13.0305L14.8456 5.72153C14.7371 5.70308 14.6196 5.7123 14.5201 5.7769L10.7227 8.0102L14.8185 15.6329C14.8727 15.6237 14.936 15.6053 14.9903 15.5776L18.8058 13.3258Z" fill="url(#paint3_linear)"></path>
        <path d="M19.1678 13.2519L19.1406 13.2058V13.2704L19.1678 13.2519Z" fill="url(#paint4_linear)"></path>
        <path d="M18.8067 13.3258L14.9911 15.5683C14.9369 15.596 14.8826 15.6144 14.8193 15.6237L14.8917 15.7621L19.1231 13.2612V13.2058L19.0146 13.0212C19.0056 13.1504 18.9242 13.2612 18.8067 13.3258Z" fill="url(#paint5_linear)"></path>
        <path d="M18.8067 13.3258L14.9911 15.5683C14.9369 15.596 14.8826 15.6144 14.8193 15.6237L14.8917 15.7621L19.1231 13.2612V13.2058L19.0146 13.0212C19.0056 13.1504 18.9242 13.2612 18.8067 13.3258Z" fill="url(#paint6_linear)"></path>
        <defs>
        <linearGradient id="paint0_linear" x1="16.3104" y1="7.44703" x2="12.7538" y2="14.5557" gradientUnits="userSpaceOnUse">
        <stop stop-color="#3F873F"></stop>
        <stop offset="0.3296" stop-color="#3F8B3D"></stop>
        <stop offset="0.6367" stop-color="#3E9638"></stop>
        <stop offset="0.9341" stop-color="#3DA92E"></stop>
        <stop offset="1" stop-color="#3DAE2B"></stop>
        </linearGradient>
        <linearGradient id="paint1_linear" x1="14.1814" y1="11.1966" x2="23.9771" y2="4.10556" gradientUnits="userSpaceOnUse">
        <stop offset="0.1376" stop-color="#3F873F"></stop>
        <stop offset="0.4016" stop-color="#52A044"></stop>
        <stop offset="0.7129" stop-color="#64B749"></stop>
        <stop offset="0.9081" stop-color="#6ABF4B"></stop>
        </linearGradient>
        <linearGradient id="paint2_linear" x1="10.357" y1="4.9664" x2="19.1658" y2="4.9664" gradientUnits="userSpaceOnUse">
        <stop offset="0.0919165" stop-color="#6ABF4B"></stop>
        <stop offset="0.2871" stop-color="#64B749"></stop>
        <stop offset="0.5984" stop-color="#52A044"></stop>
        <stop offset="0.8624" stop-color="#3F873F"></stop>
        </linearGradient>
        <linearGradient id="paint3_linear" x1="10.3571" y1="10.6712" x2="19.1651" y2="10.6712" gradientUnits="userSpaceOnUse">
        <stop offset="0.0919165" stop-color="#6ABF4B"></stop>
        <stop offset="0.2871" stop-color="#64B749"></stop>
        <stop offset="0.5984" stop-color="#52A044"></stop>
        <stop offset="0.8624" stop-color="#3F873F"></stop>
        </linearGradient>
        <linearGradient id="paint4_linear" x1="10.3568" y1="13.2377" x2="19.1654" y2="13.2377" gradientUnits="userSpaceOnUse">
        <stop offset="0.0919165" stop-color="#6ABF4B"></stop>
        <stop offset="0.2871" stop-color="#64B749"></stop>
        <stop offset="0.5984" stop-color="#52A044"></stop>
        <stop offset="0.8624" stop-color="#3F873F"></stop>
        </linearGradient>
        <linearGradient id="paint5_linear" x1="10.3579" y1="14.3977" x2="19.1659" y2="14.3977" gradientUnits="userSpaceOnUse">
        <stop offset="0.0919165" stop-color="#6ABF4B"></stop>
        <stop offset="0.2871" stop-color="#64B749"></stop>
        <stop offset="0.5984" stop-color="#52A044"></stop>
        <stop offset="0.8624" stop-color="#3F873F"></stop>
        </linearGradient>
        <linearGradient id="paint6_linear" x1="20.4492" y1="7.23455" x2="14.8354" y2="18.4546" gradientUnits="userSpaceOnUse">
        <stop stop-color="#3F873F"></stop>
        <stop offset="0.3296" stop-color="#3F8B3D"></stop>
        <stop offset="0.6367" stop-color="#3E9638"></stop>
        <stop offset="0.9341" stop-color="#3DA92E"></stop>
        <stop offset="1" stop-color="#3DAE2B"></stop>
        </linearGradient>
        </defs>
    </svg>